<?xml version="1.0" encoding="utf-8"?>
<!-- Generator: Adobe Illustrator 18.1.1, SVG Export Plug-In . SVG Version: 6.00 Build 0)  -->
<svg class="logo-white" aria-labelledby="websitetitle" version="1.1" id="Ebene_1" xmlns="http://www.w3.org/2000/svg" xmlns:xlink="http://www.w3.org/1999/xlink" x="0px" y="0px"
	 viewBox="0 0 937.5 480" enable-background="new 0 0 937.5 480" xml:space="preserve">
<title id="websitetitle">House on a Hill</title>
<g>
	<path fill-rule="evenodd" clip-rule="evenodd" fill="#FFFFFF" d="M791.2,90.2c-1.2-0.3-2.5-0.4-3.8-0.8c-1-1.2-1.7-2.3-1.8-3.9
		c0.5-1.6,2-2.6,3.5-3.2c0.3,0,2.9,0.1,3.3-0.3c-0.2-2.5-0.6-4.9-0.5-7.4c0.1-0.1,0.2-0.2,0.4-0.3c-0.2-0.8-0.3-1.5-0.4-2.2
		c0.2-0.8,0.3-1.5,0.5-2.3c-0.1-1.3-0.3-3,1.1-3.5c1.7-0.1,1.9,2.2,2.2,3.4c0.8,0.5,1.5,1.1,2.4,1.6c0.9,1,1.8,2,2.4,3.2
		c-0.1,1.7,0.5,3.2,0.6,4.8c-0.4,0.6-0.7,0.7-1.3,0.8c-0.6-0.8-1-1.6-1.3-2.6c-0.8-0.5-1.3-0.8-2.2-1.5c-0.1,0.5-0.2,0.9-0.3,1.4
		c0.1,1.4,0.1,2.9,0.3,4.3c-0.4,0.8-0.7,1.6-1.1,2.5C794.9,87.7,794.7,89.6,791.2,90.2L791.2,90.2z"/>
	<path fill="#FFFFFF" d="M836.5,367.6c-0.1-0.5-0.2-1-0.3-1.4c-0.6-0.3-1-2.3-1.1-3.1c-0.3-0.6-1.5-2.6-1-3.2
		c-0.4-1.6-1-3.3-1.6-4.9c-0.5-2.3-1-4.5-1.2-7c0.4-0.4-0.3-1.8-0.5-2.2c-1.8-9.6-3.5-19.2-5.4-28.7c-2.1-7.9-3-11.4-3.2-11.8
		c-3.4-12.4-5-19-5.5-20.3c-0.7-2.7-1.6-5.5-2.1-8.3c-0.8-2.8-1.9-5.6-2.5-8.4c-0.6-1.7-1.3-3.5-1.9-5.2c-2.2-5.5-4.3-11.7-7.1-17
		c-0.4-1.3-1-2.4-1.4-3.6c-0.2-0.1-0.7-1.5-1.1-2.2c0.1-0.2,0.1-0.4,0.2-0.6c-0.6-1.3-0.5-1.5-2.2-5c-0.5-0.9-2.1-4.6-2.8-4.8
		c-0.1-0.4-0.1-0.8-0.2-1.2c-0.7-1.2-1.4-2.4-2.1-3.6c-1.2-1.3-3.3-4-3.4-5.6c-0.2-0.3-0.4-0.5-0.6-0.7c0-0.1,0-0.3,0.1-0.4
		c-0.8-0.8-1.5-1.2-1.9-2.3c0-0.1,0.1-0.2,0.2-0.2c-0.8-1.1-1.6-2.1-2.3-3.1c-1-2.2-3.1-4.4-4.7-6.2c-0.4-0.5-0.7-1-1-1.4
		c-1.7-1.7-3-3.9-4.8-5.4c-0.3-0.7-1-1.5-1.7-1.7c-0.5-1.8-3.3-2.7-4.2-4.2c-1.6-1.2-3.1-2.4-4.4-3.9c-2.8-2.3-5.6-4.8-8.6-6.8
		c-0.8-1-2.9-2.4-4-2.9c-0.3-0.2-3.8-2.8-6.5-4.7c0.4-1.6,0.8-4.3,1.9-5.7c0.3-0.5,0.6-0.9,1-1.3c0.5-1.2,2.2-3.7,1.9-4.9
		c0.7-0.8,0.7-2.4,0.9-3.5c1-1.8,1.7-4,2.5-5.9c0.1,0,0.2-0.1,0.4-0.1c0.8,1.1,1.7,1.9,2.9,2.4c2.1,0.5,2.1,0.5,2.5,0.7
		c1.8,0.2,3.1-0.6,4.5-1.5c0.6-0.2,1.3-0.4,1.9-0.5c0.7-1.2,0-2.8,0.5-4.1c-0.5-1.6-0.5-1.6-1.4-3.5c-0.2-1.3-0.6-2.9-0.9-4.2
		c-1.6-2.6-1.6-2.6-2.1-3.7c-0.1-0.5-0.2-1.1-0.3-1.6c0.3-1.4-0.8-3-2-4.4c-1.4-1.6-2.3-2.9-3.1-5c-0.3-1.6,0.4-1.6,1.8-2.9
		c1.3-1.6,5.5-6.5,6.9-8.1c0.8-1.4,1.6-2.8,2.5-4.2c0.9-0.3,0.9-0.3,1.4-0.3c-0.2-0.7,0-1.3,0.2-2c-0.1-2.8-1.9-5.1-4.1-6.8
		c-1.1-1.2-3.1-3-4.9-2c-1.6,1.3-3.2,2.6-4.8,3.9c-0.9,0.9-1.8,1.9-3,2.6c-1.7-3.6-5.7-6.1-9.8-6.4c-1.2,0.3-2.5,0.6-3.7,0.9
		c-2.1,1-4.2,2.1-6.2,3.1c-3.2,2-6.7,4.6-8.9,7.8c-1,1.1-2.4,2.6-3.7,3.3c-0.9,1.1-2,2.4-3.3,3.1c-1.9,1.5-3.8,3.1-6,4.3
		c-0.6,0.5-1.1,1-1.7,1.5c-0.9,0.5-1.5,1-2,2c-1,0.6-1.6,1.8-2.2,2.8c-2.4,1.9-4.3,7.9-3.5,10.9c1.3-0.5,2.8-1,3.7-2.1
		c2.1-1.8,4.6-3.2,7-4.6c1-1,1.9-2.1,3.1-2.8c0,0.5-0.1,0.7-0.4,1c0.2,1.6,0,2.1-1.4,3.1c-0.7,1.1-1.8,2.2-2.1,3.4
		c-1.1,1.4-1.7,2.2-1.9,4c-0.4,0.7-0.7,1.4-1,2.1c-0.1,1.1-0.8,2-1.4,3c-1,3.8-3.4,7.4-4.5,11.2c-2.9,0-6.1-0.2-8.7,0
		c-3.1,0.8-6.5,1.3-9.6,1.9c-3.8,1-7.5,1.9-11.3,2.9c-2.1,0.9-4.1,1.8-6.2,2.7c-1.5,0.4-3.5,0.9-4.6,2c-2,1.1-2,1.1-2.6,1.2
		c-3.6,2-7.1,4.2-10.6,6.5c-3.5,2.7-3.5,2.7-4.3,3.2c-0.7,0.6-1.2,1-1.5,1.8c-1.7,1.4-3.4,2.9-5,4.3c-2.3,1.5-4,3.4-6,5.3
		c-0.5,2.6-3,4.1-4.3,6.3c-4.8,5.8-6.6,8.5-6.9,8.7c-0.1,0.2-0.2,0.5-0.3,0.7c-2.3,3.1-4.2,6.4-6.2,9.6c-1.1,1.9-2.1,3.8-3.2,5.8
		c-1.6,3.4-3.1,7-4.6,10.4c-1.5,3.6-3.8,12.4-5.2,15.2c-0.5,2.1-1.1,4.1-1.7,6.2c-0.8,3.1-1.6,6.3-2.3,9.5c-0.3,2.2-0.9,4.3-1.8,6.3
		c-0.4,0.7-0.8,1.3-1.2,2c-0.2,0.8-0.4,1.6-0.5,2.5c0.1,2,0.1,4-0.1,5.9c0.2,0.4,0.5,0.9,0.8,1.4c0.6,0.4,0.6,0.4,3.1,2.7
		c0.9,0.4,1.7,0.9,2.6,1.3c1.8,0.5,3.6,1.5,5.5,1.7c1.2-0.3,2.5-0.5,3.7-0.8c1.6-0.3,3.4-0.3,4.9-0.9c3.2-2.6,5.3-6.6,7.6-9.9
		c0.5-1.6,1.2-3,1.4-3.8c2.5-3.3,3.5-7.7,4.7-11.6c0.8-1.2,0.6-4,0.6-5.4c1-3.5,2.1-8.4,3.6-12.9c0.2-0.5,0.9-2.6,1.1-3.1
		c0.3-1.1,1.1-2.6,1.1-3.7c0.4-0.9,0.8-1.8,1.3-2.6c2.4-8,7.8-15,13.2-21.4c1.3-1.4,2.7-2.8,4-4.3c3.8-3.6,8.1-6.7,12.4-9.6
		c4-2.3,8.1-4.3,12.4-6.1c4.2-1.3,8.4-2.7,12.6-4c0.4-0.3,0.8-0.6,1.3-0.9c1-1.5,4.3-1.6,6-1.8c0.9,0.1,1.9,0.1,2.8,0.2
		c2.2,0.5,4.4,1.1,6.6,1.6c1.7,0.7,3.3,1.5,4.9,2.3c1.2-0.1,2.1,0,3.2,0.4c1.7,0.1,2.8,0.6,4.4,1.3c0.6,0.1,1.3,0.2,2,0.3
		c1.7,0.9,3.3,1.8,5,2.7c0.2,0,0.4,0,0.5,0c5.4,3.5,10.8,6.9,16.3,10.4c1.9,1.7,3.9,3.4,5.9,5.2c0.4,0.1,0.8,0.2,1.2,0.3
		c1.2,0.9,2.3,1.9,3.5,2.9c0.5,0.6,1.1,1.2,1.8,1.6c0.6,0.8,2.1,2.4,4.1,4.8c1.6,1.3,3.3,3.9,4.5,5.7c0.2,0.1,0.5,0.2,0.7,0.3
		c1.2,1.6,2.4,3.1,3.6,4.7c1.1,1.1,2,2.3,3,3.5c5.1,8.9,9.6,18,13.2,27.6c1.9,5.8,3.9,11.6,5.8,17.5c0.3,0.1,1,2.2,1.1,2.6
		c3.3,10.6,6.8,21.2,9.5,31.9c1.3,6.4,2.5,12.7,3.8,19.2c0.8,5.4,1.6,10.8,3.2,16c1.4,4.1,3.2,10.2,4.2,13c1,2.5,2,5,2.8,7.6
		c0.7,1.4,0.7,1.4,0.9,1.6c0.1,1.7,0.9,3.9,2,5.2c0.3,1.4,1,2.7,1.3,4.1c0.6,0.9,1.1,2,2.3,4.3c1,1.3,2,2.4,3.1,3.5
		c0.7,0.1,1.4,0.2,2.1,0.3c1.4,0.6,3.1,0.5,4.6,0.4c2-1,3.6-3.4,4.2-5.5c0.1-0.1,0.2-0.1,0.3-0.2c1.2-1.8,2.4-4.1,2.8-6.2
		C840.5,374.3,837.6,369.8,836.5,367.6z M759,112c0.7-0.7,1.4-1.4,2.1-2.1c0.5-1,0.6-1.4,1.5-1.9c0.9,1,1.7,2,2.6,3.1
		c-1,1.3-2,2.7-3.2,3.8c-1,1.2-1.9,2.3-2.7,3.6c-1.6,1.7-1.6,1.7-1.7,1.9c-0.7,0.7-1.5,1.8-2.1,2.5c-1.2-2.1-1.4-5.1-1.9-7.5
		C754,115,754,115,759,112z M730.7,123.4c1.5-1.5,3.7-2.1,5.6-2.9c2-1.1,5-3.4,7.2-3.4c1.8,5.9,3.8,11.6,6.1,17.3
		c-0.1,0-0.2,0-0.2,0.1c-2.3-1.2-4.8-2-7.4-2.9c-3.5-0.3-7-1-10.4-1.1c-0.8,0-1.6,0.1-2.4,0.2c-1.8-0.4-3.4-1.3-5.1-1.9
		C723.6,127.2,729.7,124,730.7,123.4z M743.7,153.5c-0.9,2-1.7,4-2.7,6.1c-0.8,4.4-0.8,4.4-1.6,8.5c0.1,1.3,0.2,1.6,0.3,3.4
		c-0.1,0-0.2,0.1-0.3,0.2c-1.6-0.7-3.2-1.7-4.7-2.6c-2.6-1.3-5.3-2.5-7.8-3.7c-4.7-1.5-9.7-2.2-14.6-3.2c-0.1-0.1-0.1-0.2-0.1-0.2
		c0.8-2.9,1.5-5.9,2-8.9c1.8-2.8,1.8-2.8,3.3-5.5c0.6-1.8,1.2-1.5,1.6-2.4c0.2-0.9,0.5-1.5,0.8-2.4c-0.2-1,0.3-1.6,0.5-2.5
		c1.7-0.8,3.1,0.4,4.7,1c1,0.2,2,0.4,3,0.7c3.9,0,7.4,0.3,11.2,1.3c2.8,1.3,2.8,1.3,5.1,2.5C745.2,148,743.7,151.3,743.7,153.5z"/>
	<path fill-rule="evenodd" clip-rule="evenodd" fill="#FFFFFF" d="M147.9,390.3c-2.4-1.2-8.1-0.7-11.1-0.9c-3.7-1-7.6-1.7-11.3-2.9
		c-0.3,0-0.6,0-0.9,0.1c-4-1.8-7.9-3.5-11.6-6c-0.5-0.7-1.9-1.9-2.7-2.2c-2.4-2.4-4.2-4.8-6-7.4c-0.3-0.9-1.2-2.2-2-2.7
		c0-0.3,0-0.5,0-0.7c0.1-0.1,0.1-0.1,0.3-0.1c-0.4-1.2-1-1.7-1.3-3c-1.7-2.5-2.2-6.8-2.9-9.7c0-3-0.6-6-0.6-9.1
		c0.4-2.6-0.4-5.7,0.6-8.3c0.4-3.5,0.6-7,2.2-10.1c0.1-0.7,0.2-1.4,0.4-2c1.2-1.9,1.3-5.3,3.5-6.3c1.3-2.4,2.7-5,5-6.5
		c1.7-2.9,5.2-3.7,7.3-5.9c0.7-0.3,1.5-0.5,2.3-0.7c1.7-1.7,4.5-2.2,6.7-2.7c1.4-0.8,1.9-1.1,3.6-1.1c5.4-1.9,11.3-2.2,17.1-2.5
		c2,0.2,5.4,0.4,7.3-0.2c1.1,0.1,2.2,0.4,3.2,0.6c0.6-0.6,7.1,0.4,7.9,0.7c5.1,0,10.4,2.5,15.2,4c1,1,2.7,0.9,3.5,2.1
		c1.7,0,4.7,2.7,5.8,3.8c3.9,2.2,6.8,7.3,9,11c0.3,1.9,3,5.3,2.5,7c1.7,5.7,2.2,12,2.2,17.9c-0.2,0.6-0.2,1,0,1.5
		c-0.3,2.7-0.5,5.3-0.7,8.1c-1.2,1.2-1.9,6.4-2.2,8.6c-1.9,1.6-1.8,4.7-3.7,6.2c-0.1,0.4-0.1,0.7-0.2,1.2c-2,2.1-4,4.2-5.9,6.4
		c-1.9,1.3-3.5,3.1-5.7,4c-5.2,3.5-12,5-18,6.6c-1.7,0-3.6-0.5-5,0.5C160.2,389.7,156,390.1,147.9,390.3L147.9,390.3z M781,389.2
		c-0.4-0.3-1.3-0.3-1.7-0.5c-6.1,0.1-12.2,0.1-18.2,0.2c-1.2-0.5-3.9-0.6-5.2,0.1c-3.1,0-7.2-1.2-10-0.1c-9.9,0-20.2-0.1-30.2-0.4
		c-1.4,0.1-2.7,0.2-4.1,0.4c-1.1-0.5-1.4-1-2.1-1.9c-0.2-3.5,0.1-7.1-0.4-10.6c0.1-1.2-0.2-2.6,0.2-3.5c0-6,0-6-0.2-7.6
		c0.4-0.6,0.7-5.3,0-5.8c0.1-1.9,0.2-3.9,0.4-5.8c0-4,0-7.9,0-11.8c-0.4-1.2-0.4-1.2-0.4-2.5c0.6-3.2-0.2-6.7,0.4-9.9
		c-0.2-0.8-0.4-5.7-0.2-5.8c-0.1-4.8-0.1-9.4-0.2-14.1c0.1-0.3,0.2-0.6,0.4-0.9c0-2.8-1.2-6,1.7-7.1c6.6-0.3,13-0.1,19.5-0.4
		c2.5,0.2,5.9-0.5,7.8,1.4c0.1,3.5,0.4,7.3,0,10.8c0.2,6.3,0.1,12.9,0.1,19.2c-0.1,0.8,0.1,6.3-0.1,8c0.1,5.1-0.1,10,0.1,15.1
		c-0.1,2.7-0.1,5.6,0.1,8.4c0.1,0.1,0.3,0.3,0.5,0.5c3.5,0.1,7,0.1,10.5,0.3c0.6-0.6,6.8-0.3,8.1-0.2c1.3,0.4,2.7-0.1,4,0.3
		c2.7-0.1,5.4-0.6,8.1-0.1c1-0.6,2.3-0.2,3.4,0.1c1-0.4,1.9-0.3,3-0.1c2.5-0.3,7-1,8.9,0.9c0.1,0.4,0.2,0.9,0.4,1.3
		c-0.9,6-0.2,13.1-0.1,19.2c-0.5,1.9-1.4,2.4-3.3,2.4C781.8,388.8,781.4,389,781,389.2L781,389.2z M214.2,389.1
		c-0.6-0.1-1.2-0.2-1.8-0.3c-1.3-1.5-2.4-3.5-1.4-5.5c-0.5-7.4-0.1-15-0.4-22.5c0.4-2.8-0.1-6.2,0.1-9.1c0.2-0.5,0.6-5.2,0.1-5.7
		c-0.4-6.8-0.2-13.9,0-20.7c0.4-0.6-0.1-3.2-0.1-3.8c0-5,0.1-9.9,0.1-14.9c0-2.2-0.6-3.6,1.3-5.1c3.8-0.1,7.8-0.4,11.6,0.1
		c0.6-0.2,0.6-0.2,8.1-0.4c2.2,0,4.3,0.1,6.5,0.1c2.3,0.4,3.8,3.4,5,5.2c1.8,1.8,3.2,5.7,5.5,6.8c0.5,1.7,1.7,3.8,3.2,4.7
		c0.8,1.6,2,3,3,4.4c2.4,2.4,4.5,5.8,6.3,8.7c0.1,0,0.2,0,0.4,0c0.5,1.5,2.2,2.9,2.8,4.2c0.9,1.1,1.8,2.2,2.7,3.2
		c1.2,2,2.6,3.5,3.7,5.5c0.3,0.2,0.6,0.4,1,0.6c0.3,1.7,1.9,2.4,3.2,1.2c0-3.2,0-6.3,0-9.5c-0.6-2.3,0.2-5-0.2-7.4
		c0.7-0.7,0.3-6.8,0-7.9c0.2-0.7,0.2-0.7,0.2-4c-0.2-3,0.4-5.9-0.2-8.8c0.1-1.6,0.1-3.2,0.2-4.7c1.2-2.4,2.8-3.1,5.5-2.1
		c0.1-0.1,0.3-0.1,0.5-0.2c2.8,0.2,5.6-0.2,8.4,0c3.6-0.3,8.8-0.5,12.1,0.8c0,1.2-0.4,5,0.4,6.2c-0.1,4.5-0.1,9.1-0.2,13.7
		c0,0.9,0,1.7,0,2.7c0.1,0.1,0.1,0.2,0.2,0.4c0,12.1,0,24.2,0,36.4c-0.3,3,0,6,0,9c-0.1,2.7-0.4,5.5,0,8.3c-0.1,0.2-0.1,0.4-0.2,0.6
		c0.5,2.2,0.3,6.6-0.5,8.7c-0.6,0.2-1.2,0.4-1.7,0.6c-4.8,0-9.5,0-14.2,0c-0.9-0.3-1.3-0.2-2,0.1c-1.4-0.1-2.7-0.3-4.1-0.4
		c-1.9,0.6-5.1,0.4-6.9-0.6c-3.2-3.7-6-7.8-8.9-11.8c-1-0.6-1.1-1.9-2.1-2.6c-1.4-2-3.8-4.5-4.6-6.8c-1.6-1-2-3.4-3.7-4.2
		c-0.1-0.5-0.3-1-0.4-1.4c-1.7-0.3-3-4.3-4.5-5.4c-0.7-1.2-1.5-2.2-2.5-3.2c-0.9-1.9-2.7-3.5-3.5-5.4c-1.5-0.3-1.9-3.2-3.6-3.2
		c-0.3,0.2-0.6,0.5-0.8,0.8c-0.2,2.7-0.1,5.6-0.4,9.2c0.4,0.4,0.2,1.4,0,1.8c0.2,8.1,0,16.3,0,24.3c0.9,2.7,0.3,5.7-0.8,8.3
		c-3.5,1.2-7.8-0.7-11.2,0.6C221.9,388.9,217.7,388.3,214.2,389.1L214.2,389.1z M346.3,389.1c-1.4-0.4-2.4-0.4-4-0.3
		c-0.5-0.5-1.3-0.4-2-0.4c-0.2-3.5,1.7-5,2.8-8c1.7-1.7,2.7-5,4-7.1c0.6-0.3,1.4-2.4,1.7-3.2c0.4-0.4,0.7-0.7,1.1-1
		c0.9-2.6,3-4.7,3.7-7.2c2.2-3,3.4-7.1,6-9.7c0.4-1.3,0.4-1.5,1.4-2.2c0.8-2.7,2.4-5.3,3.7-7.8c1.2-0.4,1.4-1.7,1.9-2.8
		c1-1,1.2-2.7,2.1-3.6c0.7-1.8,2-3.3,2.5-5.2c1.4-0.9,3.2-4.5,3.5-6.1c1.7-2.7,3.6-5.7,4.9-8.6c0.6-0.4,0.9-1.1,1.1-1.8
		c1.4-2,2.9-4.7,4-6.9c0.9-1.5,1.7-3,2.7-4.5c0.6-0.4,1.2-0.8,1.8-1.2c3.6-0.4,6.7-0.1,10.3,0c3.5-0.1,8.4-1.2,11.5,0.6
		c1.7,1.8,2.9,4.1,3.6,6.3c0.9,1.1,1.4,2.3,1.9,3.6c1.9,1.9,2.7,4.8,4.2,6.9c0.6,1.9,0.6,1.9,1.5,3.3c1,0,3.7,7.6,4.9,8.8
		c0.4,2.2,2.4,3.6,2.7,5.8c0.2,0.1,0.4,0.3,0.6,0.5c3.9,8.2,8.8,16,12.7,24.1c0.5,0.7,1,1.5,1.6,2.3c2.4,5.1,5.2,9.9,7.6,14.8
		c1,0.6,0.9,1.9,1.7,2.8c0.3,1.5,1.4,2.9,2.2,4.3c0,1.4-0.1,1.7-1,2.7c-5.8,0.1-5.8,0.1-7.2,0.3c-0.6-0.6-20-0.2-21.1-0.2
		c-3.1-0.6-3.5-6-5.5-7.9c-0.4-1.7-1.6-4.3-3.3-5.2c-8.2,0-16.4,0-24.6,0c-6-0.6-12.7,0-18.7,0.1c-1.6,1.6-2.1,3.8-3.4,5.6
		c0,1.9-2.7,4-3,6.2c-0.6,0.6-1.2,0.8-1.9,1.1c-3.6,0-7.4,0.6-10.9,0.1c-0.9,0.2-2.4,0.2-3.3,0.2C350.5,388.5,348,388.5,346.3,389.1
		L346.3,389.1z M564.4,389.1c-0.5-0.1-1-0.3-1.4-0.4c-8.6-0.1-8.6-0.1-9.3-0.4c-0.4-0.6-0.9-1.2-1.3-1.7c0.4-2.8,0.1-5.9,0.2-8.7
		c0.4-0.4-0.1-1.4-0.2-1.7c0-1.3,0-1.3,0.4-3.1c-0.2-0.7-0.4-1.7,0.1-2.4c-0.7-1.4-0.6-4.3-0.1-5.9c-0.1-3.2,0.3-6.6-0.5-9.6
		c-2.4-1.4-4.8,0-7.1-0.7c-1.9,0.1-5.2,0.6-7,0c-4.7,0.2-9.4,0.1-14,0.4c-0.8-0.1-1.6-0.1-2.3-0.1c-0.4,0.4-0.7,0.7-1,1.2
		c-0.4,2.7-0.6,6.8,0.2,9.4c-1.1,7.1-0.1,14.9-0.3,22c-0.3,0.4-0.3,0.4-1.6,1.2c-8.9,0-17.7,0-26.5,0c-3-0.7-0.4-4.2-1.7-5.6
		c0.1-1.4,0.2-2.9,0.4-4.3c0-2.4,0-4.8,0-7.1c-0.6-0.6-0.4-2.4-0.1-3.2c-0.1-6-0.1-6,0.1-8.1c-0.2-1-0.2-7.5-0.4-8.4
		c0.4-1-0.2-1.9,0.2-2.9c0-4.3,0.1-8.6-0.2-13c0.1-0.4,0.1-0.6,0.3-0.9c-0.1-6.4-0.2-12.7-0.3-19.1c0.1-0.3,0.2-0.6,0.4-0.9
		c-0.4-3.5,0-7.3-0.1-10.8c0.2-0.8,0.5-1.5,0.8-2.2c2.1-0.6,4-0.9,6.2-0.9c0.4,0.2,0.4,0.2,3.8,0.3c2.4-0.1,4.9-0.2,7.3-0.3
		c3.6,0.6,7.3-0.6,10.8,0.7c0,0.4,0,0.4,0.6,1.5c0.3,9.3,0.2,18.6,0,28c-0.1,0.1-0.1,0.3-0.2,0.4c0.4,0.7,0.9,1.2,1.6,1.7
		c2-0.3,4.5,0.4,6.3,0c7.3,0,14.7,0.1,22-0.1c0.4-0.2,1.6-0.4,2.2-0.8c0-3.1,0.1-6-0.1-9.1c0.2-1.3,0.2-2.2,0-3.5
		c0.1-1.6,0.3-3.1,0.4-4.6c-0.9-1.9,0.3-4.6-0.3-6.3c0-2.8-0.4-5.3,1.4-7.5c3.4-1.4,7.9,0.9,11.4-0.4c2.9,0.6,6.7,0.1,9.6,0
		c0.6,0.6,5.2,0.4,6.1,0.4c0.4,0.4,0.9,0.7,1.3,1.2c0,1.1,0.2,2,0.1,13.2c0.4,0.8,0,4.7,0,5.4c0.1,0.1,0.1,0.3,0.2,0.5
		c-0.6,6.2-0.3,12.8-0.2,19c-0.6,4,0,8.6,0,12.7c0.1,0.4,0.1,0.7,0.3,1.2c-1.5,3.1,0.1,8.2-0.4,11.8c0.2,1.2,0.5,2.4,0,3.5
		c0.3,0.8,0.5,4.2,0.1,5c0,3.7,0,7.3,0,11c-0.4,1.7-0.4,1.7-0.7,2.2c-2.8,1.4-6.3,0.2-9.3,0.7C571.5,388,565.9,388.8,564.4,389.1
		L564.4,389.1z M600.6,389.1c-2.4-0.4-5.1-0.2-7.6-0.7c-0.3-0.6-0.6-1.2-0.8-1.8c0.1-12.9,0.3-26,0-38.9c-0.3-0.9,0.1-2.1,0.1-3.1
		c-0.6-6.6,0-13.3-0.1-19.9c0.1-0.2,0.2-0.4,0.4-0.6c-0.6-6.8-0.6-14.2-0.2-21c0.2-0.4,0.4-0.7,0.6-1c1.1-0.4,1.1-0.4,4.4-0.7
		c5.9,0,11.8,0.1,17.8,0.1c1.4,0.2,1.7,0.7,1.9,2.1c0.1,4,0,7.9-0.2,11.9c0.1,2.9,0.6,6,0,8.9c0.1,3.1,0.2,6.2,0.4,9.4
		c-0.1,2.2-0.4,3-0.4,5.9c-0.1,0.2-0.1,0.4-0.1,0.6c0.7,6.9,0.4,14.3,0.4,21.3c-0.1,0.2-0.1,0.4-0.2,0.7c0.4,4.8,0.5,10.1,0,14.8
		c0.5,1.6-0.4,3.2,0.4,4.7c0,2.4,0,2.4-0.4,6.6c-3.1,1.2-7.1,0.2-10.2,0.2C604.8,389.1,602.5,388.4,600.6,389.1L600.6,389.1z
		 M628.3,389.1c-0.4-0.4-1.7-0.7-2-1.1c-1-2.6-0.4-5.8-0.6-8.6c0.2-0.2,0.2-3.1,0.2-3.6c-0.4-0.6-0.4-0.6-0.4-1.7
		c0.1-0.1,0.1-0.1,0.3-0.1c0-0.7,0.1-1.4,0.1-2.1c-0.7-0.7-0.4-2.3,0-3.1c-0.4-3.2,0.4-6.6-0.4-9.5c0.1-0.7,0.3-1.4,0.5-2
		c-0.4-4.3-0.1-8.6-0.1-12.9c-0.2-1.2-0.2-1.2-0.4-10.2c0.4-0.6,0.2-1.6,0.4-2.4c-0.1-1.9-0.2-3.7-0.3-5.5c0.9-3-0.7-6.7,0.3-9.7
		c-0.1-4-0.1-7.8-0.2-11.7c0.1-0.9,0.3-1.9,0.5-2.8c3-1.5,6.9-0.6,10.1-0.9c1.5,0,3.1,0,4.7,0c4,0.4,8.4-0.5,12.5,0.4
		c1.2,0.6,1.3,0.9,1.7,2.1c0.1,10.7,0.4,21.5-0.4,32.2c0.6,3.5,0.1,7.2,0.4,10.7c-0.1,0.7-0.1,1.4-0.2,2.2c1.5,4-1.7,12.2,0.9,15.7
		c5.5,0.1,11.2,0.1,16.8,0.3c1.7-1.7,7.8,0.8,9.9-0.2c1.9,0.1,3.8,0.1,5.8-0.1c4.2,0.8,9.1-1.1,13,1.2c0.2,0.5,0.4,1,0.7,1.6
		c0,1.4,0.1,2.6-0.4,3.8c0.8,1.7,0.3,5.6,0,7.7c0.2,0.6,0.2,0.6,0.2,2.1c-0.4,2.4,0.4,4.9-0.4,7.2c-3.3,1.5-7.6,0.6-11.3,0.9
		c-2.8-0.9-6.2,0.8-9-0.6c-0.6,0.2-4.2,0.2-5,0.4c-2.9-0.1-5.7-0.1-8.5-0.2c-5.2,0.1-10.3,0.2-15.4,0.4c-6.9-0.6-13.7,0-20.6,0
		C630.7,388.4,629.3,388.7,628.3,389.1L628.3,389.1z M149.9,366.2c-0.3-0.1-0.5-0.2-0.7-0.3c-8.2,0-16.9-3.2-19.9-11.4
		c-0.2-0.2-0.4-0.4-0.6-0.6c-0.4-4.1-2.9-11.3-0.7-14.9c0.4-3.8,2.7-7.8,5.9-9.9c1.2-1.4,2.2-2,4-2.5c2.3-2.3,7.6-2.4,10.7-2.6
		c2.6,0,5.3,0.1,7.9,0.1c3,0.9,6.3,1.2,8.7,3.3c1.8,0.6,2.6,1.9,4,3c0,0.1,0,0.2,0,0.4c0.7,0.4,0.7,0.8,1.1,1.5
		c1.4,1.4,1.6,3.5,2.8,5c0.5,4.8,0.5,4.8,0.7,5.2c-0.1,2.6-0.1,5.2-0.2,7.8c-0.4,0.7-0.4,0.7-0.9,3c-0.6,1.3-1.2,2.6-1.7,3.9
		c-0.6,0.8-1.2,1.7-1.7,2.5c-2,1.2-3.6,2.9-5.8,3.7c-0.6,1-3.6,1.4-4.9,2.1C155.8,365.6,152.8,365.9,149.9,366.2L149.9,366.2z
		 M388,358.1c-0.9-0.3-1.7-0.5-2.4-0.7c-0.2-0.4-0.2-0.4-0.2-1.3c2.1-3.5,3.8-8,6.3-11.2c0.3-1.8,1.7-3.5,2.4-5.1
		c0.9-1.4,1.9-2.7,2.8-4c0.8,0,0.8,0,1.5,0.4c0,1.6,3.2,3.2,2.5,4.6c0.3,0.4,0.6,0.7,0.9,1.2c1.6,4.3,4.3,8.2,6,12.5
		c0.9,0.9,0.6,2.2,0.6,3.3c-2.3,0.4-4.9,0-7.1,0c-0.3,0.1-0.5,0.1-0.7,0.3C396.5,358.1,392.3,358.1,388,358.1L388,358.1z M457.2,289
		c-1.9-0.4-6.4-1.2-8.1-0.6c-3.5-0.4-7-0.7-10.4-1.1c-2.1-0.8-5.4-1.3-7.7-1.3c-1.1-0.4-2.1-0.7-3.1-1.1c-4.3,0-4.4-2.7-4.4-6.6
		c-1.3-4,0.1-8.7-1.3-12.5c0-0.9,0.1-1.8,0.1-2.7c-0.1,0-0.3,0-0.4,0c0-1.7,0.1-2.8,0.7-4.3c2.1-0.8,4.3,0.9,5.9,1.9
		c2.1,0.2,3.6,1.7,5.8,1.9c1.9,0.8,4.5,1.5,6.1,2.7c0.3-0.1,0.6-0.1,1-0.2c3.2,1.5,7.7,2.4,11.2,3.1c1.8,0,1.8,0,5.4,0.5
		c4.5-0.1,8.6-0.4,12.5-2.4c1.2-1.4,1.2-1.4,1.8-2.4c-0.1-0.9-0.1-1.7-0.1-2.4c-1.1-1.4-1.1-1.4-1.4-2.2c-2.3-0.7-4.3-2.4-6.8-2.4
		c-1.4-0.9-3-0.5-4.3-1.3c-4-0.4-7.8-1.9-11.7-2.3c-2.8-1.4-6.1-1.9-9.1-3c-0.1-0.2-0.2-0.4-0.3-0.5c-2-0.2-3.7-1.7-5.6-2.3
		c0-0.5-1.2-0.8-1.6-0.9c0-0.6-2.6-2.2-3.2-2.3c-0.4-0.8-1.4-2.1-2.2-2.4c-0.5-0.8-1-1.5-1.4-2.2c-0.7-1.6-1.4-3.1-2.1-4.6
		c-0.4-1.9-0.4-1.9-0.7-2.5c-0.1-1.9-0.4-2.2-0.5-5.4c0.1-2.7-0.1-6,1.1-8.4c0-2.6,2-5.1,3-7.4c0.5,0,1.7-2.3,2.9-2.6
		c1.4-1.8,2.6-3.6,4.9-4c0-1.5,7.3-3.8,8.8-4.2c2.3-0.5,4.7-1,7.1-1.4c4,0,8.1-0.9,12-0.4c0.7-0.4,1.7-0.1,2.4,0.1
		c5.8-0.9,13,1.8,18.9,2.4c2.3,0.9,4.9,1.2,7.1,2c0.9,1.2,1.4,1.2,0.9,2.7c1.1,2.2,0.1,5.1,1.3,7.4c0,1,0,2,0,3
		c0.4,1.7,0.4,1.7,0.7,5.8c0.4,0.9,0.2,2.1,0.5,3.2c-0.8,2.3-2.5,2.3-4.5,1.2c-0.4,0-0.7,0.1-1,0.1c-0.6-2.9-7.3-1.9-8.8-4.2
		c-2.4-0.6-4.8-1.2-7.2-1.8c-0.5-0.5-2.3-0.7-3.1-0.7c-5.6-1.9-14.6-1.7-20.2,0.4c-0.1,0.2-0.1,0.4-0.1,0.7
		c-1.4,0.3-1.4,1.3-1.7,2.4c0.7,4.3,5.4,4.2,8.6,5.8c0.7,0,1.5,0.1,2.3,0.1c3.7,1.8,8.3,1.7,12.2,3.2c3.3,0.6,4,0.9,5.4,1
		c0,0.1,0,0.2,0,0.4c1.4,0.4,3.1,0.6,4.3,1.5c0.9,0.2,1.9,0.4,2.9,0.7c0.4,0.4,0.9,0.9,1.4,1.3c2.9,0,6.7,4.2,8.5,6
		c1,1.6,2,3.2,3.3,4.5c0,1,0.1,1.2,0.7,2c0.4,1.6,0.9,3.2,1.4,4.8c0,1.7,0,3.5,0.1,5.3c0.4,0.9-0.2,6.6-1,7.6
		c-0.5,2.8-2.3,6.3-4,8.6c-1.2,0.7-1.2,1.2-1.8,2.4c-1.9,0.4-4.2,3-5.8,4.2c-1.7,0.9-4.1,1.4-5.4,2.7c-2.6,0.4-5.1,1.8-7.7,1.8
		c-1.5,0.7-4.1,0.9-5.8,0.9C463,289.2,459.8,288,457.2,289L457.2,289z M259.9,288.8c-0.8-0.8-4.3-0.3-5.5-0.3
		c-2-0.3-5.5-0.2-7.1-1.3c-0.9,0-1.6,0-2.3-0.5c-3.4-0.2-6.6-1.5-9.7-2.4c-1.7-1.3-4-1.3-5.6-2.9c-0.6-0.2-1.1-0.4-1.6-0.6
		c-1.2-1-2.3-2.2-3.8-2.4c-1.2-2.5-4.3-3.6-5.5-6.1c-0.9-1.1-1.4-1.9-1.9-3.3c-1.9-1.9-3.1-5.2-3.7-7.8c-0.6-0.8-0.7-1.7-0.7-2.7
		c-2.4-6.3-1.9-14.3-1.9-20.8c0.5-3,1-5.9,1.5-8.9c0.6-1.6,1.2-3.4,1.4-5c0.5-0.6,0.5-0.6,2.2-4.5c0.4-0.5,0.9-1,1.3-1.4
		c0.4-1.9,2.3-2.7,2.7-4.5c1.4-1.2,2.4-2.9,4-3.7c2.4-2.6,5.6-3.6,8.2-5.8c0.5-0.1,1-0.1,1.5-0.2c1.1-1.3,3.2-1.9,4.8-1.9
		c1.7-0.6,4.3-0.8,5.8-1.8c4.3-0.8,8.9-1.7,13.3-1.7c0.3,0.1,0.6,0.1,1,0.3c1.5-0.7,7.3-0.8,9,0c2.9-0.9,8.4,0.4,11.7,0.9
		c0.6,0.1,1.2,0.3,1.7,0.5c1.7,0.1,3.5,0.5,5.1,0.9c0,0.1,0,0.1,0,0.3c1.4,0.6,2.8,0.7,4.3,0.9c0.1,0.1,0.1,0.4,0.3,0.6
		c3.2,0.9,6.9,2.6,9.4,4.9c1.4,0.3,2,1.6,3.3,2.2c2.2,2.3,4.3,4.4,6.1,7c1.5,3.5,4.5,7.6,4.5,11.5c0.8,1.6,1,3.7,1.2,5.5
		c0.7,0.7,0.8,8.2,0.8,9.2c0,2.4,0,4.8,0,7.2c-0.1,0.1-0.3,0.2-0.4,0.4c0,2-0.8,9.1-2.1,10c-0.6,2.4-0.6,2.4-0.6,3.3
		c-0.9,0.9-2.7,4.2-2.7,5.5c-1.2,0.3-1.2,0.6-1.4,1.9c-1.7,1.9-3.5,3.8-5.2,5.8c-1,0.4-1.5,0.6-1.8,1.8c-2.8,1.4-5.5,3-8.3,4.5
		c-4.1,1.4-8.1,3.3-12.5,3.6c-0.3,0.1-0.6,0.4-0.9,0.6c-2.4,0-4.6,0.8-6.9,1.2C268.7,288.5,264.2,288.6,259.9,288.8L259.9,288.8z
		 M362.6,288.8c-2.3-0.4-4.1-0.4-8.4-1c-3.1-0.1-6.1-1-9.2-1.2c-1.9-0.6-3.7-1.3-5.5-1.9c-1.1-0.1-2.7-0.4-3.2-1.4
		c-1.1-0.2-2.3-1.2-3.4-1.7c-2.5-2.5-2.5-2.5-4-3.7c-0.9-1.4-1.7-2.7-2.6-4c-0.9-2.6-1.9-5.1-2.5-7.8c-0.2-1.8-0.4-3.6-0.5-5.4
		c0-4.7,0.1-9.4,0.1-14c-0.1-3.9-0.1-7.7-0.1-11.5c0-4.2,0.1-8.4,0.1-12.5c-0.2-1.5,0.1-3.2-0.4-4.7c0.5-3.7,0-7.2,0.4-10.8
		c-0.2-2.2-0.7-4.9,0.6-6.6c0.6-0.3,1.2-0.5,1.9-0.7c8,0,16-0.1,24,0.2c0.5,0.6,1,1.3,1.5,1.9c-0.1,3.6-0.1,7.2-0.1,10.9
		c-0.4,0.4,0,2.9,0,3.6c-0.6,0.6,0.1,9.1,0.1,10.8c-0.1,4.3,0,5.8-0.4,13c0.6,1.9,0,3.9,0,5.8c0.2,0.4,0.4,5.4,0.7,8.9
		c0.4,1.1,0.7,2.2,1.1,3.4c0.8,1,1.6,2.1,2.4,3.2c1.5,0.9,3,1.8,4.6,2.4c2.9,1.9,8.9,1.2,12.2,1.2c2.2-0.4,5.6-0.6,7.3-2.3
		c3.1-1.2,4.5-5.3,5.8-8.2c-0.3-0.9,0-1.2,0.4-2c0-9.6,0.3-19.5,0-29.2c0-2.1,0-4.2,0-6.3c0.2-4.9-0.4-10.2,0.1-15.1
		c1.3-2.6,3-2,5.7-2.1c4.5,0,9.1,0.1,13.7,0.1c2.9-0.1,5.3-0.5,8.1,0.4c1,6.3,0.6,13.7,0.2,20.1c0.2,0.9,0.2,0.9,0.4,7.5
		c-0.2,9.9-0.1,19.9-0.1,29.9c0,3.5-0.4,6.8-0.7,10.3c-1.4,3.6-1.4,3.6-1.7,4.9c-1.7,2.6-3.4,5.3-5.9,7.1c0,0.1,0,0.2,0,0.4
		c-1.9,1-3.7,2.1-5.6,3.2c-1.4,0.4-2.7,0.8-4.1,1.2c-3.6,1.4-7.8,2.5-11.5,2.5c-0.6,0.6-3,0.7-4,0.6c-2.9,0.2-5.8,0.4-8.6,0.7
		c-0.1-0.1-0.1-0.1-0.2-0.2C368.8,289.3,365.4,288.3,362.6,288.8L362.6,288.8z M118.9,287.6c-2.2-0.5-4.3-0.2-6.3-1.1
		c-0.5-0.6-0.5-0.6-0.9-0.7c0.1-0.8,0.1-1.6,0.3-2.4c0-6.6-0.6-13.4,0-19.9c-0.8-4-0.2-9.2-0.2-13.3c0.4-0.4-0.1-4-0.1-4.8
		c0.4-2,0.4-2,0.3-3c-0.1-0.1-0.3-0.1-0.4-0.1c0-0.6,0.2-0.9,0.1-2.5c0.6-1.9,0.4-5.4,0.4-7.6c-0.9-4.7,0.3-10.1-0.4-14.9
		c0.1-3,0.3-6,0.4-9c-0.2-1.4-1.1-7.4,1.1-7.8c0-0.1,0-0.3,0-0.4c3.6-1.2,9,0.1,12.8,0.1c1-0.3,2.2-0.6,3.2,0
		c0.7-0.2,0.7-0.2,6.6-0.4c4.8,0.2,5.3,0.2,5.8,5c-0.1,3-0.1,6-0.1,9.1c-0.1,5.5-0.1,10.9-0.2,16.4c0.1,0.4,0.1,0.7,0.3,1.1
		c2.5,0.8,6.3,1.3,8.9,0.4c4.2,0.4,8.4,0.4,12.7,0.4c3-1,7.8,1.9,10-1c0-0.6,0-1.3,0.1-1.9c0.4-0.4,0.3-1,0-1.4c0-7.5,0-15,0.1-22.4
		c0-1.7,0.2-3.2,0.5-4.9c2.8-1.4,8.5-0.6,11.2-0.6c0.1,0.1,0.2,0.1,0.4,0.2c1.1-0.2,8.8-0.2,11.3-0.4c2.4,0.1,4-0.3,6,1.2
		c0.3,1.9,0.7,4.2,0.1,6.1c0,6.3-0.1,12.8,0.4,19c-0.1,0.4-0.3,0.8-0.4,1.2c0.2,1.4,0.4,3.5,0,4.9c0.6,6.2,0,12.7,0,18.8
		c0.7,0.7,0.1,8.9,0,10.7c0.5,1.9,0.5,5.3,0,7.3c0.6,0.6,0.4,9.1,0,10.2c0.1,1.2,0.1,2.3,0.2,3.5c-0.6,0.6-0.2,1.7,0,2.4
		c-0.3,0.5-0.6,1-0.9,1.5c-2.3,1.7-9.9,1-12.7,0.5c-1.2,0.6-5.9,0.4-7.3,0c-0.9,0.2-3.6,0.4-4.7,0.2c-2.2,0.2-3.5-0.2-4.2-2.2
		c0.6-5.3-0.6-11.2,0.1-16.6c-0.2-4.3-0.5-9.3,0-13.5c-1.6-2.7-5.1-1.7-7.8-1.5c-1.2-1.2-13.5-0.1-17.2-0.4c-2,0.4-4.2-0.1-6.3,0.6
		c-0.8,2.4-0.8,5.3-0.8,7.8c0.7,0.7,0.2,10.2,0.2,11.7c-0.5,0.9-0.1,3.3-0.2,4.5c0.2,2.8,0.2,5.7-0.1,8.4c-0.5,0.4-1,0.7-1.5,1.2
		c-6.4,0.4-13.2,0.1-19.7,0C119.6,287.4,119.3,287.4,118.9,287.6L118.9,287.6z M507.4,287.6c-0.4-0.4-0.4-0.4-1.3-0.5
		c-0.4-0.6-0.4-0.6-0.7-0.7c-0.1-0.8-0.3-1.5-0.4-2.2c0.3-1.9,0.4-5.8-0.4-7.6c0.1-1.2,0.4-2.4,0.6-3.5c-0.1-0.9-0.2-1.7,0-2.5
		c-0.1-0.1-0.1-0.3-0.2-0.4c0-4.4,0-8.8,0.1-13.1c-0.6-0.6,0.1-4,0.4-4.6c-1.4-2.7-0.3-7.5-0.6-10.8c0.7-3.7,0.3-8.2,0-11.9
		c0.6-0.6,0.4-6,0.4-7.1c-0.7-6.8,0.4-14-0.1-20.8c0.8-1.7,3-2.4,4.7-1.7c0.1-0.1,0.2-0.1,0.4-0.2c5.3-0.1,10.7-0.1,16.1-0.1
		c1.7,0.6,4.1-0.5,5.6,0.2c14,0,28.1,0,42.1,0c0.5,0.1,1.1,0.4,1.7,0.6c1.4,2.7,0.5,8,0.5,11c0.1,0.1,0.1,0.3,0.2,0.5
		c-0.3,3.3,0.9,6.8-1.8,9.1c-5.6,0-11.4-0.4-17.1,0c-1.1-0.5-3.1-0.4-4,0.2c-2.4-1.2-7.1-0.1-10.1-0.4c-1.9,1.9-6.9-1.7-8.9,1.2
		c-0.1,1.2-0.3,2.3-0.4,3.5c0.2,0.6,0.2,0.6,0.4,5.7c0.9,1.2,1.4,1.3,2.8,1.7c1-1,6.9-0.4,8.7,0c1.2-0.2,7.2-0.4,8.6-0.2
		c3-0.1,6.1-0.1,9.2-0.1c2.6,0.4,2.6,0.4,6,0.4c1.8,3,1.1,7.6,0.9,10.9c0,2.8,0,5.6,0,8.4c-3,3-7.6,0.1-11.2,1.4
		c-0.9,0-0.9,0-1.3-0.2c-2.3,1.2-8.3-0.3-11.1,0.2c-3.8-0.1-8-0.1-11.8,0.2c-2.2,2.7-0.1,6.9-0.9,10.1c0.4,0.9,0.4,0.9,0.9,1.6
		c2.7,0,5.6,0.8,8.1,0c2.2,0.4,4.7,0.1,6.9,0.2c0.1,0.1,0.1,0.1,2.1-0.2c3.5,0.6,7.7-0.1,11.3,0.4c1.4-0.4,3-0.1,4.5,0.1
		c2.1-1,8.7-0.6,10.8,0.7c0.9,5.1,0.4,10.4,0.5,15.6c-0.5,4.3-0.4,4.8-5.1,4.8c-0.8-0.8-6.4-0.4-8.1,0c-0.5-0.3-0.9-0.1-1.4,0.1
		c-1.6-0.8-3.7,0.3-5.4-0.3c-7.4,0.2-14.9-0.2-22.4,0c-0.5,0.5-5.1-0.1-6-0.1c-1.6,0.1-3.2,0.3-4.7,0.4c-1.9-0.4-3.7-0.1-5.5-0.1
		c-0.7-0.7-9.4-0.6-10.5,0C509.1,287.2,508.4,287.4,507.4,287.6L507.4,287.6z M260,264.7c-0.2-0.1-0.4-0.2-0.5-0.3
		c-2.5-0.1-5-0.9-7.5-1.4c-7-2.8-11.2-8.4-11.7-15.8c-0.6-2.7-0.1-5.8-0.2-8.6c0.7-2.2,1.4-4.2,2.2-6.3c2.7-4.2,6-6.2,10.4-8.5
		c1.7-0.4,3.5-0.7,5.2-1.1c4.6,0,11.2-1.2,15.3,1.2c0.9,0.1,1.4,0.4,2,0.9c2.7,0,7.4,4.2,8.1,6.6c3.6,4.5,3.2,11.4,3.1,16.8
		c-0.8,0.8-0.9,2.4-0.9,3.6c-0.4,0.5-0.5,1.1-1.2,1.7c-0.4,1.9-1,2.8-2.4,4c-0.5,1-0.7,1.5-1.7,1.9c0,0.9-4.8,3.2-5.8,3.6
		c-1.4,0.3-2.7,0.6-4,1C266.9,264.2,263.4,264.5,260,264.7L260,264.7z"/>
</g>
</svg>
